<svg xmlns="http://www.w3.org/2000/svg" width="1040" height="132" viewBox="0 0 1040 132" role="img" aria-label="Most used languages">
<style>.h{font:600 16px -apple-system,Segoe UI,Helvetica,Arial,sans-serif;fill:#1f2328}.s{font:12px -apple-system,Segoe UI,Helvetica,Arial,sans-serif;fill:#59636e}.t{font:13px -apple-system,Segoe UI,Helvetica,Arial,sans-serif;fill:#1f2328}.m{font:13px -apple-system,Segoe UI,Helvetica,Arial,sans-serif;fill:#59636e}</style>
<rect x="0.5" y="0.5" width="1039" height="131" rx="8" fill="#ffffff" stroke="#d1d9e0"/>
<text x="24" y="30" class="h">Most used languages</text>
<text x="1016" y="30" class="s" text-anchor="end">Share of code, averaged across 10 repositories</text>
<clipPath id="c"><rect x="24" y="44" width="992" height="10" rx="5"/></clipPath>
<g clip-path="url(#c)"><rect x="24.0" y="44" width="274.9" height="10" fill="#f1e05a"/><rect x="298.9" y="44" width="196.1" height="10" fill="#DA5B0B"/><rect x="494.9" y="44" width="182.6" height="10" fill="#3572A5"/><rect x="677.5" y="44" width="136.7" height="10" fill="#3D6117"/><rect x="814.3" y="44" width="125.9" height="10" fill="#e34c26"/><rect x="940.2" y="44" width="67.1" height="10" fill="#663399"/><rect x="1007.3" y="44" width="8.7" height="10" fill="#867db1"/></g>
<circle cx="29.0" cy="76" r="5" fill="#f1e05a"/><text x="40.0" y="80" class="t">JavaScript</text><text x="248.0" y="80" class="m" text-anchor="end">27.7%</text><circle cx="277.0" cy="76" r="5" fill="#DA5B0B"/><text x="288.0" y="80" class="t">Jupyter Notebook</text><text x="496.0" y="80" class="m" text-anchor="end">19.8%</text><circle cx="525.0" cy="76" r="5" fill="#3572A5"/><text x="536.0" y="80" class="t">Python</text><text x="744.0" y="80" class="m" text-anchor="end">18.4%</text><circle cx="773.0" cy="76" r="5" fill="#3D6117"/><text x="784.0" y="80" class="t">TeX</text><text x="992.0" y="80" class="m" text-anchor="end">13.8%</text><circle cx="29.0" cy="100" r="5" fill="#e34c26"/><text x="40.0" y="104" class="t">HTML</text><text x="248.0" y="104" class="m" text-anchor="end">12.7%</text><circle cx="277.0" cy="100" r="5" fill="#663399"/><text x="288.0" y="104" class="t">CSS</text><text x="496.0" y="104" class="m" text-anchor="end">6.8%</text><circle cx="525.0" cy="100" r="5" fill="#867db1"/><text x="536.0" y="104" class="t">VBA</text><text x="744.0" y="104" class="m" text-anchor="end">0.9%</text>
</svg>
