<svg xmlns="http://www.w3.org/2000/svg" width="880" height="156" viewBox="0 0 880 156" role="img" aria-label="Most used languages">
<style>.h{font:600 16px -apple-system,Segoe UI,Helvetica,Arial,sans-serif;fill:#1f2328}.s{font:12px -apple-system,Segoe UI,Helvetica,Arial,sans-serif;fill:#59636e}.t{font:13px -apple-system,Segoe UI,Helvetica,Arial,sans-serif;fill:#1f2328}.m{font:13px -apple-system,Segoe UI,Helvetica,Arial,sans-serif;fill:#59636e}</style>
<rect x="0.5" y="0.5" width="879" height="155" rx="8" fill="#ffffff" stroke="#d1d9e0"/>
<text x="24" y="32" class="h">Most used languages</text>
<text x="24" y="50" class="s">Share of code, averaged across 10 repositories</text>
<clipPath id="c"><rect x="24" y="64" width="832" height="10" rx="5"/></clipPath>
<g clip-path="url(#c)"><rect x="24.0" y="64" width="230.5" height="10" fill="#f1e05a"/><rect x="254.5" y="64" width="164.4" height="10" fill="#DA5B0B"/><rect x="419.0" y="64" width="153.2" height="10" fill="#3572A5"/><rect x="572.1" y="64" width="114.7" height="10" fill="#3D6117"/><rect x="686.8" y="64" width="105.6" height="10" fill="#e34c26"/><rect x="792.4" y="64" width="56.3" height="10" fill="#663399"/><rect x="848.7" y="64" width="7.3" height="10" fill="#867db1"/></g>
<circle cx="29.0" cy="96" r="5" fill="#f1e05a"/><text x="40.0" y="100" class="t">JavaScript</text><text x="208.0" y="100" class="m" text-anchor="end">27.7%</text><circle cx="237.0" cy="96" r="5" fill="#DA5B0B"/><text x="248.0" y="100" class="t">Jupyter Notebook</text><text x="416.0" y="100" class="m" text-anchor="end">19.8%</text><circle cx="445.0" cy="96" r="5" fill="#3572A5"/><text x="456.0" y="100" class="t">Python</text><text x="624.0" y="100" class="m" text-anchor="end">18.4%</text><circle cx="653.0" cy="96" r="5" fill="#3D6117"/><text x="664.0" y="100" class="t">TeX</text><text x="832.0" y="100" class="m" text-anchor="end">13.8%</text><circle cx="29.0" cy="120" r="5" fill="#e34c26"/><text x="40.0" y="124" class="t">HTML</text><text x="208.0" y="124" class="m" text-anchor="end">12.7%</text><circle cx="237.0" cy="120" r="5" fill="#663399"/><text x="248.0" y="124" class="t">CSS</text><text x="416.0" y="124" class="m" text-anchor="end">6.8%</text><circle cx="445.0" cy="120" r="5" fill="#867db1"/><text x="456.0" y="124" class="t">VBA</text><text x="624.0" y="124" class="m" text-anchor="end">0.9%</text>
</svg>
